<?xml version="1.0" encoding="utf-8"?>
<!-- Generator: Adobe Illustrator 24.0.2, SVG Export Plug-In . SVG Version: 6.00 Build 0)  -->
<svg version="1.0" id="Layer_1" xmlns="http://www.w3.org/2000/svg" xmlns:xlink="http://www.w3.org/1999/xlink" x="0px" y="0px"
	 viewBox="0 0 300 280" enable-background="new 0 0 300 280" xml:space="preserve">
<g>
	<g>
		<g>
			<path fill="#437CBF" d="M63.95,99.57c1.6,2.07,2.92,4.4,3.95,6.91V93.21H56.63C59.34,94.67,61.83,96.82,63.95,99.57z"/>
		</g>
		<g>
			<path fill="#437CBF" d="M47.71,94.62c-2.09,0-4.1,0.45-5.98,1.27v23.49h25.02C66.56,105.68,58.09,94.62,47.71,94.62"/>
		</g>
	</g>
	<g>
		<path fill="#437CBF" d="M82.85,115.34l13.98-16.93H83.29v-3.69h18.96v3.08l-13.98,16.93h13.98v3.69h-19.4V115.34z"/>
		<path fill="#437CBF" d="M107.46,94.72H125v3.76h-13.41v6.09h11.88v3.76h-11.88v6.33h13.57v3.76h-17.7V94.72z"/>
		<path fill="#437CBF" d="M130.14,94.72h10.56c1.49,0,2.81,0.21,3.96,0.63c1.15,0.42,2.11,1,2.88,1.74
			c0.63,0.65,1.12,1.41,1.46,2.27c0.34,0.86,0.51,1.81,0.51,2.84v0.07c0,0.97-0.14,1.84-0.42,2.62c-0.28,0.78-0.67,1.47-1.17,2.06
			c-0.5,0.6-1.09,1.11-1.78,1.52c-0.69,0.42-1.45,0.74-2.28,0.97l6.4,8.97h-4.91l-5.84-8.26h-0.07h-5.16v8.26h-4.13L130.14,94.72
			L130.14,94.72z M140.39,106.47c1.49,0,2.68-0.36,3.56-1.07c0.88-0.71,1.32-1.68,1.32-2.91v-0.07c0-1.29-0.43-2.27-1.29-2.94
			c-0.86-0.67-2.07-1-3.63-1h-6.08v7.99H140.39L140.39,106.47z"/>
		<path fill="#437CBF" d="M165.92,118.82c-1.83,0-3.5-0.32-5.01-0.96c-1.51-0.64-2.81-1.52-3.89-2.62c-1.08-1.11-1.93-2.4-2.54-3.88
			c-0.61-1.48-0.91-3.05-0.91-4.72v-0.07c0-1.67,0.3-3.24,0.91-4.72c0.61-1.48,1.47-2.78,2.57-3.89c1.1-1.12,2.41-2,3.93-2.66
			c1.51-0.65,3.18-0.98,5.01-0.98c1.83,0,3.5,0.32,5.01,0.96c1.51,0.64,2.81,1.52,3.89,2.62c1.08,1.11,1.93,2.4,2.54,3.88
			c0.61,1.48,0.91,3.05,0.91,4.72v0.07c0,1.67-0.3,3.24-0.91,4.72c-0.61,1.48-1.47,2.78-2.57,3.89c-1.11,1.12-2.42,2-3.93,2.66
			C169.42,118.5,167.75,118.82,165.92,118.82z M165.99,115c1.17,0,2.24-0.22,3.22-0.66c0.98-0.44,1.81-1.04,2.51-1.79
			c0.7-0.76,1.24-1.64,1.63-2.66c0.39-1.02,0.59-2.1,0.59-3.25v-0.07c0-1.15-0.2-2.24-0.59-3.27c-0.39-1.03-0.94-1.92-1.65-2.67
			c-0.71-0.76-1.56-1.36-2.55-1.81c-0.99-0.45-2.07-0.68-3.24-0.68c-1.17,0-2.24,0.22-3.22,0.66c-0.98,0.44-1.81,1.04-2.51,1.79
			c-0.7,0.76-1.24,1.64-1.64,2.66c-0.39,1.02-0.59,2.1-0.59,3.25v0.07c0,1.15,0.2,2.24,0.59,3.27c0.39,1.03,0.95,1.92,1.65,2.67
			c0.71,0.76,1.56,1.36,2.54,1.81C163.75,114.77,164.82,115,165.99,115z"/>
		<path fill="#437CBF" d="M183.39,94.72h8.84c1.85,0,3.55,0.3,5.1,0.9c1.55,0.6,2.88,1.43,3.99,2.49c1.12,1.06,1.98,2.31,2.59,3.74
			c0.61,1.43,0.91,2.98,0.91,4.65v0.07c0,1.67-0.3,3.23-0.91,4.67c-0.61,1.44-1.47,2.7-2.59,3.76c-1.12,1.06-2.45,1.9-3.99,2.5
			c-1.55,0.61-3.24,0.91-5.1,0.91h-8.84V94.72z M192.19,114.66c1.24,0,2.37-0.2,3.39-0.59c1.02-0.4,1.88-0.95,2.59-1.66
			c0.71-0.71,1.26-1.56,1.66-2.55c0.39-0.99,0.59-2.06,0.59-3.21v-0.07c0-1.16-0.2-2.23-0.59-3.23c-0.4-1-0.95-1.85-1.66-2.57
			c-0.71-0.71-1.57-1.28-2.59-1.68c-1.02-0.41-2.14-0.61-3.39-0.61h-4.67v16.18L192.19,114.66L192.19,114.66z"/>
		<path fill="#437CBF" d="M209.86,94.72h4.13v9.85h11.37v-9.85h4.13v23.7h-4.13v-9.99h-11.37v9.99h-4.13V94.72z"/>
		<path fill="#437CBF" d="M243.99,94.55h3.86l10.43,23.87h-4.4l-2.4-5.72h-11.2l-2.44,5.72h-4.27L243.99,94.55z M249.94,109.01
			l-4.1-9.48l-4.06,9.48H249.94z"/>
	</g>
</g>
</svg>
